<svg width="85.666" height="40" xmlns="http://www.w3.org/2000/svg">
 <g>
  <title>background</title>
  <rect x="-1" y="-1" width="87.666" height="42" id="canvas_background" fill="none"/>
 </g>

 <g>
  <title>Layer 1</title>
  <line fill="none" stroke="#000" x1="60.618129" y1="91.976299" x2="60.282561" y2="91.976299" id="svg_23" stroke-linejoin="undefined" stroke-linecap="undefined"/>
  <line fill="none" stroke="#000" x1="97.530655" y1="104.727899" x2="54.577897" y2="99.358804" id="svg_25" stroke-linejoin="undefined" stroke-linecap="undefined"/>
  <line stroke="#000000" stroke-linecap="undefined" stroke-linejoin="undefined" id="svg_20" y2="5.179643" x2="85.417745" y1="3.484727" x1="0.036388" stroke-width="0.001" fill="none"/>
  <line stroke="#000000" stroke-linecap="undefined" stroke-linejoin="undefined" id="svg_21" y2="4.755914" x2="85.417753" y1="2.849134" x1="-0.38734" stroke-width="0.001" fill="none"/>
  <line stroke-linecap="undefined" stroke-linejoin="undefined" id="svg_22" y2="25.094898" x2="84.146561" y1="22.552525" x1="6.392321" stroke-width="0.001" stroke="#000000" fill="none"/>
  <line stroke-linecap="undefined" stroke-linejoin="undefined" id="svg_24" y2="34.840661" x2="55.333001" y1="23.611847" x1="52.790628" stroke-width="0.001" stroke="#000000" fill="none"/>
  <line stroke-linecap="undefined" stroke-linejoin="undefined" id="svg_26" y2="20.857609" x2="80.121137" y1="13.018626" x1="12.11266" stroke-width="0.001" stroke="#000000" fill="none"/>
  <rect stroke="#000000" id="svg_27" height="51.69492" width="86.228817" y="-0.5407" x="-0.175476" stroke-width="0.001" fill="#000000"/>
  <rect stroke="#000000" id="svg_28" height="37.923733" width="83.474585" y="1.027097" x="1.095706" stroke-opacity="null" stroke-width="0.001" fill="#ffffff"/>
  <line stroke-linecap="null" stroke-linejoin="null" id="svg_29" y2="39.162693" x2="84.994019" y1="1.027099" x1="0.671982" stroke-opacity="null" stroke-width="0.001" stroke="#000000" fill="none"/>
  <path d="m16.561813,14.798285c0,0.211864 -0.232941,1.645928 2.330507,4.237288c4.798084,4.850332 8.875853,6.2285 12.711866,7.20339c2.739536,0.69623 5.296608,0.847458 7.203388,0.847458c1.059322,0 2.321716,-0.645922 3.81356,-1.90678c2.527599,-2.136248 5.413624,-4.011719 6.779663,-6.355932c1.148869,-1.971531 0.954773,-3.152236 0.847454,-3.81356c-0.033936,-0.209128 -0.777615,-0.949986 -2.966099,-1.271187c-2.934662,-0.430717 -5.296612,0 -6.355934,0l-1.059322,0.211864l-0.211864,0" id="svg_31" stroke-opacity="null" stroke-width="0" stroke="#000000" fill="none"/>
  <line stroke-width="0.5" stroke-linecap="null" stroke-linejoin="null" id="svg_32" y2="38.950829" x2="84.994019" y1="1.027099" x1="0.671982" stroke-opacity="null" stroke="#000000" fill="none"/>
  <line stroke-linecap="null" stroke-linejoin="null" id="svg_34" y2="0.60337" x2="84.994019" y1="39.162693" x1="0.671982" fill-opacity="null" stroke-opacity="null" stroke-width="0.5" stroke="#000000" fill="none"/>
 </g>
</svg>